<svg width="18" height="16" viewBox="0 0 18 16" fill="none" xmlns="http://www.w3.org/2000/svg">
<g clip-path="url(#clip0_61385:198)">
<path d="M8.54795 0.166534C3.82782 0.166534 0 3.76253 0 8.19853C0 11.7465 2.44929 14.7565 5.84753 15.8195C6.27498 15.8935 6.431 15.6455 6.431 15.4325C6.431 15.2415 6.42352 14.7365 6.41925 14.0665C4.04155 14.5515 3.53929 12.9895 3.53929 12.9895C3.15138 12.0615 2.59035 11.8145 2.59035 11.8145C1.81346 11.3165 2.64806 11.3265 2.64806 11.3265C3.50617 11.3835 3.95713 12.1545 3.95713 12.1545C4.72013 13.3815 5.95867 13.0275 6.44596 12.8215C6.5229 12.3025 6.74411 11.9485 6.98882 11.7475C5.09094 11.5445 3.09475 10.8555 3.09475 7.77853C3.09475 6.90153 3.42816 6.18453 3.97529 5.62253C3.8866 5.41953 3.59379 4.60253 4.05865 3.49753C4.05865 3.49753 4.77676 3.28153 6.40963 4.32053C7.09141 4.14253 7.82235 4.05353 8.55009 4.05053C9.27569 4.05453 10.0077 4.14253 10.6905 4.32153C12.3223 3.28253 13.0394 3.49853 13.0394 3.49853C13.5053 4.60453 13.2125 5.42053 13.1249 5.62353C13.6731 6.18553 14.0033 6.90253 14.0033 7.77953C14.0033 10.8645 12.005 11.5435 10.1007 11.7425C10.4074 11.9905 10.6809 12.4805 10.6809 13.2295C10.6809 14.3035 10.6702 15.1695 10.6702 15.4325C10.6702 15.6475 10.8241 15.8975 11.258 15.8185C14.6509 14.7545 17.098 11.7455 17.098 8.19853C17.098 3.76253 13.2702 0.166534 8.54795 0.166534Z" fill="#C4C4CC"/>
</g>
<defs>
<clipPath id="clip0_61385:198">
<rect width="17.098" height="16" fill="white"/>
</clipPath>
</defs>
</svg>
